<?xml version="1.0" encoding="UTF-8"?>
<svg id="Layer_2" xmlns="http://www.w3.org/2000/svg" version="1.1" viewBox="0 0 238.9 61.2">
  <!-- Generator: Adobe Illustrator 29.5.1, SVG Export Plug-In . SVG Version: 2.1.0 Build 141)  -->
  <defs>
    <style>
      .st0 {
        fill: #789bf3;
      }
    </style>
  </defs>
  <g id="Layer_1-2">
    <path class="st0" d="M228.1,42.7c-.7-4.2-1.4-8.3-2-12.5,0-.5-.1-1,0-1.4.1-.3.5-.7.9-.8.2,0,.6.2.7.4,3.3,5.6,6.5,11.2,9.8,17.1-2.9.3-5.6,1.4-8.4-.2.5,1,2.2,1.8,3.2,1.6,1.7-.3,3.4-.5,5.1-.8.3,0,.7.3.8.5,1.1,2.2.9,4.4-.9,6.3-2.2,2.3-4.8,4.1-7.9,4.8-1,.2-1.9.4-2.9.4h-28.6c-1.3,0-2.1-.4-2.8-1.7-.5,1.7-1.2,3.1-2.7,4-1.5.8-3,1.1-4.6.6-2.1-.6-3.5-3-3.5-5.3h9.8c-.8-.7-21.3-.5-22.2,0h10.2c.6,2.4-1.9,4.7-3.8,5.2-2.5.7-5.9,0-7.1-4.9-.7,2.2-2.3,2.1-3.9,2.1h-7c-2,0-2.5,0-2.6-2.7v-31.2c0-2.2.6-2.8,2.8-2.8h3.3c-.2-.2-.3-.4-.5-.5.6-.3,1.3-.5,1.8-.9.3-.2.5-.7.5-1.1,0-1.3.9-1.8,2-1.9h14.3c1.4,0,2,.8,2.1,2.9h26.6c1.1,0,2.1.2,2.3,1.6h6.4c2.9,0,4.9,1.3,6.3,3.6.4.7.8,1.4,1.2,2.2-1.7.8-1.5,2.1-1.2,3.6.5,2.5.7,5.2,1.1,7.7.3,2,.8,3.9,1.2,5.8,0,.3.4.6.8.8-.3-.8-.5-1.5-.8-2.4M186.6,29.3h-22.1v16.5h37.6v-16.5h-15.5M215.9,53v-23.7h-10.4v25.6h10.4v-1.9h0Z"/>
    <path class="st0" d="M9.6,45c.4-.5,1.2-1,1.3-1.6.5-2.3.8-4.7,1.1-7.1.3-1.9.5-3.9.9-5.8.3-1.7.1-2.5-1.2-3.4,1.4-3.5,3.6-5.9,7.6-5.8h6.2c.3-1.3,1.1-1.6,2.3-1.6h26.6c.3-2.5.7-2.9,3.2-2.9h3.1v-.2c-3-1.1-5.9-2.2-9.1-3.4,4-3.9,7.9-7.7,11.9-11.6-.6-.5-1.2-.9-2-1.6h5c-3.5,3.8-6.9,7.5-10.4,11.3,4.3,1.7,8.5,3.4,12.8,5.1.5.2,1.2.2,1.8.3,1.3,0,2,.7,2.2,2,0,.4.4.8.7,1.2.3.4.8.8,1.3,1.3h3.3c2.1-.2,2.2.7,2.6,2.4v31.5c0,2.5-.4,2.9-2.8,2.9h-7.3c-1.5,0-2.7-.2-3.3-2.1-.6,1.9-1.2,3.4-2.7,4.3-1.5.9-3.1,1.1-4.7.6-1.7-.6-4-2.9-3.4-5.1h10.5c-.7-.2-1.2-.5-1.7-.5h-19.8c-.4,0-.7,0-1,.4h9.8c.3,2.3-1.4,4.7-3.7,5.3-2.5.7-5.8,0-7-4.4-.7,1.2-1.6,1.6-2.9,1.6H13c-3.7,0-6.9-1.2-9.7-3.6-1.4-1.2-2.8-2.3-3.2-4.3-.3-1.4,0-2.6.6-3.8.1-.2.4-.4.7-.4,1.5,0,3.1.2,4.6.5,1.8.5,3-.3,4.1-1.5h-.1M50.4,45.8h23.7v-16.5h-37.6v16.5h14M29.4,29.3h-6.6v25.6h10.3v-25.6s-3.7,0-3.7,0Z"/>
    <path class="st0" d="M109.4,57.7c-.6.2-1.2.4-1.8.5h-22c-1.7,0-2.2-.5-2.2-2.2V23.6c0-1.6.5-2.1,2.2-2.1h2.5c0-2.1,1.3-3.2,3.3-3.2h56c2,0,3.1,1.1,3.2,3.1h2.7c1.4,0,2,.5,2,1.9v32.9c0,1.3-.6,1.9-1.9,1.9h-22.7c-.5,0-.9-.2-1.5-.4-.2-.2-.3-.2-.4-.2,0,0,.1.3.2.4.4.3.8.5,1.3.8-1.3,1.9-3.3,2.7-5.4,2.4-3.9-.5-5.1-2.6-5.6-5.4h8.6c-.8-.2-1.3-.5-1.8-.5h-13.5c-.6,0-1.1.3-1.6.5h7.4c0,1.8-1.5,4.2-3.5,4.9-2.9,1-5.2.3-7.2-1.9.6-.3,1.2-.5,1.9-.9,0-.3,0-.4,0-.5,0,0-.2.2-.3.2M129,43.3v-14h-19.3v16.4h19.3v-2.4M96.7,41v-11.6h-8.3v25.6h8.3v-14M97.8,30.5v24.4h8.3v-25.6h-7.4c-.8,0-1,.3-.9,1.2M140.8,38.6v-9.2h-8.3v25.6h8.3v-16.3M150.3,30.2c0-.4.2-1-.6-1h-7.7v25.7h8.3v-24.7Z"/>
    <path class="st0" d="M9.6,45c-2.4,1.8-5.1.9-7.7.5H.9c1-1.8,1.9-3.4,2.9-5.1,2.3-3.9,4.6-7.8,6.9-11.7.2-.4.7-.6,1-.8.3.4.8.9.8,1.3,0,1.4-.3,2.9-.5,4.3-.4,2.6-.8,5.2-1.3,7.8-.2,1.2-.7,2.3-1,3.6,0,0,0,0,0,0,0,0-.1,0-.1.1Z"/>
    <path class="st0" d="M83.1,26.7v28.5h-2v-30.6h2v2.1Z"/>
    <path class="st0" d="M155.5,37.7v-13h2v30.6h-2v-17.6Z"/>
    <path class="st0" d="M10.7,60.2c-.6-.6-1.1-1.1-1.7-1.6h9.2c-1.1,2.6-4.6,3.3-7.5,1.6Z"/>
    <path class="st0" d="M227.3,58.7c.7,0,1.4-.2,2.1-.4-1.5,3.4-6.8,4-9.2.4h7.1,0Z"/>
    <path class="st0" d="M25.4,61c-1.2-.7-2.2-1.3-3.3-2,0,0,0-.2.1-.3h8.7c-.7,1.8-3.2,2.8-5.6,2.3,0,0,.1,0,0,0Z"/>
    <path class="st0" d="M209.4,58.7h7c-2.1,3.4-7,3.2-8.9,0h2-.1Z"/>
  </g>
</svg>